<svg width="55" height="55" viewBox="0 0 55 55" fill="none" xmlns="http://www.w3.org/2000/svg">
<path d="M38.1221 6.3507C37.8759 6.35353 37.6317 6.30768 37.4033 6.21582C37.175 6.12395 36.967 5.98788 36.7915 5.8154C36.616 5.64293 36.4763 5.43747 36.3804 5.21084C36.2846 4.9842 36.2345 4.74086 36.2331 4.49483C36.2135 4.2342 36.2479 3.97231 36.3342 3.72559C36.4205 3.47886 36.5568 3.25261 36.7346 3.06098C36.9125 2.86935 37.128 2.71649 37.3676 2.61195C37.6073 2.50741 37.8659 2.45343 38.1274 2.45343C38.3889 2.45343 38.6476 2.50741 38.8872 2.61195C39.1269 2.71649 39.3424 2.86935 39.5202 3.06098C39.6981 3.25261 39.8344 3.47886 39.9207 3.72559C40.007 3.97231 40.0414 4.2342 40.0218 4.49483C40.0204 4.74178 39.9699 4.98601 39.8734 5.21336C39.777 5.4407 39.6363 5.64662 39.4596 5.81923C39.283 5.99185 39.0737 6.12771 38.8441 6.21893C38.6145 6.31015 38.3691 6.35496 38.1221 6.3507ZM31.5001 6.3507C31.0076 6.3507 30.5353 6.15516 30.1871 5.80712C29.8389 5.45908 29.6434 4.98703 29.6434 4.49483C29.6405 3.99776 29.8338 3.51962 30.1814 3.16414C30.529 2.80866 31.0028 2.60454 31.5001 2.59607C31.7528 2.59181 32.0037 2.63767 32.2385 2.73105C32.4733 2.82443 32.6873 2.96347 32.868 3.14007C33.0487 3.31668 33.1925 3.52735 33.2912 3.7599C33.3898 3.99245 33.4413 4.24224 33.4427 4.49483C33.4385 4.74463 33.3848 4.99111 33.2846 5.22C33.1844 5.4489 33.0398 5.65565 32.8591 5.82827C32.6785 6.00089 32.4653 6.13597 32.232 6.22564C31.9987 6.31531 31.7499 6.35783 31.5001 6.3507ZM38.2401 0C37.5932 0.0108725 36.956 0.157891 36.3698 0.431451C35.7836 0.705011 35.2616 1.09898 34.8379 1.58768C34.4065 1.09439 33.8755 0.697912 33.2799 0.424281C32.6843 0.150651 32.0375 0.00604926 31.382 0C30.1894 0 29.0456 0.473573 28.2022 1.31652C27.3589 2.15946 26.8851 3.30273 26.8851 4.49483C26.8851 5.68693 27.3589 6.8302 28.2022 7.67314C29.0456 8.51608 30.1894 8.98966 31.382 8.98966C32.0499 9.00297 32.7127 8.87119 33.3246 8.60345V12.2401H36.3083V8.60345C36.9169 8.86967 37.5759 9.00141 38.2401 8.98966C39.4328 8.98966 40.5766 8.51608 41.42 7.67314C42.2633 6.8302 42.7371 5.68693 42.7371 4.49483C42.7371 3.30273 42.2633 2.15946 41.42 1.31652C40.5766 0.473573 39.4328 0 38.2401 0Z" fill="#2065EE"/>
<path d="M0 54.9785H3.45586C6.34292 54.9785 8.31772 54.3241 9.62709 52.3502L21.4329 34.1134C22.0876 35.1862 21.9051 36.7417 20.467 38.973L10.1101 54.9785H13.3298C16.2169 54.9785 18.1917 54.3241 19.5011 52.3502L31.3069 34.1134C31.9616 35.1862 31.7899 36.7417 30.341 38.973L20.0914 54.839H23.1501C26.0908 54.839 28.0335 54.1417 29.3107 52.1357L31.3606 49.0354H31.4357C39.1846 49.0354 45.9247 44.1973 45.9247 34.0813V27.9237C45.9247 23.2787 54.1458 23.7829 54.1458 19.7171H46.1286C45.5061 19.7171 45.431 19.6421 44.8836 19.052C43.6626 17.5524 42.125 16.341 40.3809 15.5046C38.6369 14.6682 36.7294 14.2275 34.795 14.2139C28.4735 14.2139 24.7922 17.1211 21.229 22.3883L0 54.9785Z" fill="#2065EE"/>
</svg>
